<mxfile host="app.diagrams.net" modified="2022-04-22T15:38:51.346Z" agent="5.0 (Windows NT 10.0; Win64; x64) AppleWebKit/537.36 (KHTML, like Gecko) Chrome/100.0.4896.127 Safari/537.36" etag="_W1yH2ehzVw7_Yzro0SZ" version="17.4.6" type="github">
  <diagram id="_zq4UYfZ-SRPf0nXEBHW" name="Page-1">
    <mxGraphModel dx="687" dy="1839" grid="1" gridSize="10" guides="1" tooltips="1" connect="1" arrows="1" fold="1" page="1" pageScale="1" pageWidth="850" pageHeight="1100" math="0" shadow="0">
      <root>
        <mxCell id="0" />
        <mxCell id="1" parent="0" />
        <mxCell id="nNgeJdsTX1bRnGq00LQ--1" value="&lt;font style=&quot;font-size: 40px&quot; color=&quot;#0000c4&quot;&gt;STAPANUL,&lt;br&gt;MAGAZIONERUL&lt;br&gt;SI LABORATUL&lt;br&gt;MINAND&lt;br&gt;IMPREUNA in&amp;nbsp;&lt;br&gt;RETEA pentru a&lt;br&gt;ADUCE LUCRURI NOI in PIATA&lt;br&gt;&lt;/font&gt;" style="text;html=1;align=center;verticalAlign=middle;resizable=0;points=[];autosize=1;strokeColor=none;fillColor=none;" vertex="1" parent="1">
          <mxGeometry x="30" y="10" width="590" height="170" as="geometry" />
        </mxCell>
      </root>
    </mxGraphModel>
  </diagram>
</mxfile>
